<?xml version="1.0" encoding="UTF-8"?>
<svg version="1.1" xmlns="http://www.w3.org/2000/svg" width="2000" height="2000">
<path d="M0 0 C1.3110365 -0.00560927 2.62207301 -0.01121854 3.97283789 -0.01699778 C7.60018027 -0.0319485 11.22709037 -0.02217647 14.85442102 -0.00823798 C18.81974937 0.0025362 22.78501766 -0.01005086 26.75033975 -0.01958537 C33.72287435 -0.03314394 40.69528386 -0.03184276 47.66782117 -0.02085119 C58.10595163 -0.00447076 68.54398075 -0.0111866 78.98211352 -0.02238176 C96.77208677 -0.04078341 114.56201428 -0.04018094 132.35199165 -0.02925825 C150.38181167 -0.0182557 168.41160159 -0.01592988 186.44142342 -0.02420759 C188.14918546 -0.02498263 188.14918546 -0.02498263 189.89144775 -0.02577332 C194.52836366 -0.02790639 199.16527953 -0.03010122 203.80219538 -0.03237442 C246.99937494 -0.05353657 290.19653431 -0.05496445 333.39371681 -0.04378462 C334.67396044 -0.04345344 335.95420407 -0.04312225 337.27324296 -0.04278104 C338.55553027 -0.04244932 339.83781757 -0.0421176 341.15896207 -0.04177583 C380.20364675 -0.03168847 419.24832309 -0.02907503 458.2930088 -0.03386641 C460.90627084 -0.03417632 463.51953287 -0.03448495 466.1327949 -0.03479229 C476.63406182 -0.03603412 487.13532873 -0.03730879 497.63659563 -0.03863134 C526.99310544 -0.04229961 556.34961526 -0.04458841 585.70612526 -0.04577589 C586.7085951 -0.0458171 586.7085951 -0.0458171 587.73131686 -0.04585914 C631.01436384 -0.04761417 674.29740781 -0.04321072 717.58045387 -0.03437757 C718.27145483 -0.0342371 718.9624558 -0.03409663 719.67439618 -0.0339519 C742.81969121 -0.02924647 765.96498617 -0.02422221 789.11028112 -0.01916538 C859.10279858 -0.00388363 929.09530531 0.00449091 1054.09273027 -0.0196267 C1077.23217246 -0.02467953 1100.37161465 -0.02967358 1123.5110569 -0.03437757 C1124.20186321 -0.03451855 1124.89266953 -0.03465953 1125.60440937 -0.03480478 C1168.86473515 -0.04362575 1212.12505885 -0.04755428 1255.38538551 -0.04577589 C1256.05347718 -0.04574887 1256.72156884 -0.04572184 1257.4099057 -0.045694 C1287.4082142 -0.04446712 1317.40652247 -0.04191194 1347.40483076 -0.03813388 C1357.89678438 -0.03681728 1368.38873802 -0.03556496 1378.88069165 -0.03433103 C1381.49088486 -0.03402148 1384.10107807 -0.03370656 1386.71127128 -0.03338625 C1425.74694032 -0.02860923 1464.78259995 -0.03268279 1503.81826781 -0.04278104 C1505.09851144 -0.04311222 1506.37875507 -0.0434434 1507.69779396 -0.04378462 C1508.97568228 -0.04411535 1510.2535706 -0.04444608 1511.57018281 -0.04478683 C1554.64115351 -0.05581209 1597.71209999 -0.0517768 1640.78306723 -0.03066164 C1645.40540724 -0.02845216 1650.02774729 -0.02630535 1654.65008736 -0.02420759 C1656.35172146 -0.02342635 1656.35172146 -0.02342635 1658.08773201 -0.02262933 C1676.071254 -0.01473094 1694.05474593 -0.02024209 1712.03826521 -0.03128362 C1729.70905718 -0.04184883 1747.37979829 -0.03817963 1765.05058379 -0.01922726 C1775.41809405 -0.00853275 1785.78546507 -0.00881024 1796.15296876 -0.02515365 C1803.03354377 -0.03491036 1809.91401007 -0.03023036 1816.79457189 -0.01368624 C1820.69810872 -0.00470668 1824.60136774 -0.00195251 1828.50489238 -0.01695231 C1832.70065851 -0.03293609 1836.8957528 -0.01795155 1841.09151077 0 C1842.29147175 -0.00956297 1843.49143273 -0.01912594 1844.72775616 -0.02897869 C1858.47142036 0.09100394 1870.73146334 4.7970617 1880.79575539 14.25139666 C1891.44886465 25.5918033 1895.16769341 38.79595279 1895.04715204 54.0710578 C1895.05112643 55.40796914 1895.05685262 56.7448762 1895.06414982 58.08177354 C1895.07910264 61.74423091 1895.06932729 65.40626024 1895.05539002 69.06870601 C1895.04461698 73.07222152 1895.05720251 77.0756775 1895.06673741 81.0791868 C1895.08029672 88.11904803 1895.07899428 95.15878538 1895.06800324 102.19864929 C1895.05162357 112.73757072 1895.05833831 123.27639177 1895.0695338 133.81531549 C1895.08793592 151.77702084 1895.08733275 169.7386809 1895.07641029 187.70039034 C1895.06540791 205.90436646 1895.06308179 224.10831276 1895.07135963 242.31229067 C1895.07187632 243.46177763 1895.07239302 244.6112646 1895.07292536 245.7955845 C1895.07505843 250.47721212 1895.07725326 255.15883971 1895.07952647 259.84046726 C1895.10068884 303.4546121 1895.10211639 347.06873695 1895.09093666 390.68288469 C1895.09060548 391.97549726 1895.0902743 393.26810982 1895.08993308 394.59989246 C1895.08960136 395.89456833 1895.08926964 397.18924421 1895.08892787 398.52315268 C1895.07884059 437.94474627 1895.07622704 477.36633159 1895.08101845 516.7879262 C1895.08132837 519.42639453 1895.08163699 522.06486287 1895.08194433 524.70333121 C1895.08318616 535.30588318 1895.08446083 545.90843514 1895.08578338 556.51098709 C1895.08945166 586.15065824 1895.09174046 615.79032943 1895.09292793 645.43000078 C1895.09295541 646.10476081 1895.09298288 646.77952084 1895.09301119 647.47472815 C1895.09476622 691.17542701 1895.09036274 734.8761229 1895.08152962 778.57682085 C1895.08138914 779.27449155 1895.08124867 779.97216225 1895.08110394 780.69097448 C1895.07639851 804.05968792 1895.07137425 827.4284013 1895.06631742 850.79711466 C1895.05103566 921.46530613 1895.04266113 992.13348696 1895.06677874 1118.33756187 C1895.07183157 1141.70036537 1895.07682562 1165.06316888 1895.08152962 1188.42597246 C1895.0816706 1189.12344662 1895.08181158 1189.82092078 1895.08195683 1190.53953052 C1895.09077776 1234.21728492 1895.09470633 1277.89503725 1895.09292793 1321.57279253 C1895.09290091 1322.24732888 1895.09287388 1322.92186523 1895.09284604 1323.61684208 C1895.09161916 1353.90450066 1895.08906398 1384.19215902 1895.08528592 1414.47981739 C1895.08396932 1425.07296736 1895.082717 1435.66611734 1895.08148308 1446.25926733 C1895.08117352 1448.89463725 1895.0808586 1451.53000716 1895.08053829 1454.16537708 C1895.07576123 1493.57788849 1895.07983491 1532.9903906 1895.08993308 1572.40290085 C1895.09042985 1574.34181969 1895.09042985 1574.34181969 1895.09093666 1576.31990862 C1895.09143275 1578.25526051 1895.09143275 1578.25526051 1895.09193887 1580.22971043 C1895.10296403 1623.71640434 1895.09892905 1667.20307426 1895.07781368 1710.68976474 C1895.07560421 1715.35667735 1895.0734574 1720.02358998 1895.07135963 1724.69050264 C1895.07083881 1725.83586479 1895.07031798 1726.98122695 1895.06978137 1728.16129704 C1895.06188285 1746.31856324 1895.06739428 1764.47579966 1895.07843566 1782.63306318 C1895.08900062 1800.4743867 1895.08533213 1818.31565985 1895.06637931 1836.15697696 C1895.05568442 1846.6246683 1895.05596293 1857.09222171 1895.07230569 1867.55990654 C1895.08206185 1874.5068217 1895.07738327 1881.45362919 1895.06083828 1888.40053129 C1895.05185806 1892.34179828 1895.04910609 1896.28279011 1895.06410435 1900.22404502 C1895.07760947 1903.80378925 1895.0725447 1907.38302054 1895.05300552 1910.96273255 C1895.04741541 1912.84314259 1895.06129214 1914.72358038 1895.07613073 1916.60394018 C1894.95694589 1930.3846232 1890.27897326 1942.65635828 1880.79575539 1952.75139666 C1869.49718081 1963.36520914 1856.31660792 1967.12412819 1841.09151077 1967.00279331 C1839.78047427 1967.00840258 1838.46943777 1967.01401185 1837.11867289 1967.01979109 C1833.4913305 1967.03474181 1829.86442041 1967.02496978 1826.23708976 1967.01103129 C1822.2717614 1967.00025711 1818.30649311 1967.01284418 1814.34117103 1967.02237868 C1807.36863643 1967.03593726 1800.39622691 1967.03463607 1793.4236896 1967.02364451 C1782.98555914 1967.00726408 1772.54753003 1967.01397991 1762.10939725 1967.02517507 C1744.319424 1967.04357672 1726.52949649 1967.04297425 1708.73951912 1967.03205156 C1690.7096991 1967.02104901 1672.67990918 1967.01872319 1654.65008736 1967.0270009 C1652.94232531 1967.02777594 1652.94232531 1967.02777594 1651.20006302 1967.02856663 C1646.56314711 1967.0306997 1641.92623124 1967.03289453 1637.2893154 1967.03516774 C1594.09213584 1967.05632989 1550.89497646 1967.05775776 1507.69779396 1967.04657793 C1506.41755033 1967.04624675 1505.1373067 1967.04591557 1503.81826781 1967.04557435 C1502.53598051 1967.04524263 1501.2536932 1967.04491091 1499.9325487 1967.04456914 C1460.88786402 1967.03448178 1421.84318768 1967.03186834 1382.79850197 1967.03665972 C1380.18523994 1967.03696963 1377.5719779 1967.03727826 1374.95871587 1967.0375856 C1364.45744896 1967.03882743 1353.95618205 1967.0401021 1343.45491514 1967.04142465 C1314.09840534 1967.04509292 1284.74189551 1967.04738173 1255.38538551 1967.0485692 C1254.38291567 1967.04861041 1254.38291567 1967.04861041 1253.36019391 1967.04865246 C1210.07714694 1967.05040748 1166.79410296 1967.04600404 1123.5110569 1967.03717089 C1122.82005594 1967.03703041 1122.12905498 1967.03688994 1121.41711459 1967.03674521 C1098.27181956 1967.03203978 1075.1265246 1967.02701553 1051.98122965 1967.02195869 C981.98871219 1967.00667694 911.99620546 1966.99830241 786.9987805 1967.02242001 C763.85933832 1967.02747284 740.71989613 1967.03246689 717.58045387 1967.03717089 C716.88964756 1967.03731187 716.19884124 1967.03745284 715.4871014 1967.0375981 C672.22677562 1967.04641906 628.96645193 1967.05034759 585.70612526 1967.0485692 C585.0380336 1967.04854218 584.36994193 1967.04851515 583.68160507 1967.04848731 C553.68329658 1967.04726043 523.6849883 1967.04470525 493.68668001 1967.04092719 C483.19472639 1967.03961059 472.70277276 1967.03835827 462.21081912 1967.03712435 C459.60062591 1967.03681479 456.9904327 1967.03649987 454.38023949 1967.03617956 C415.34457046 1967.03140254 376.30891082 1967.03547611 337.27324296 1967.04557435 C335.99299933 1967.04590553 334.7127557 1967.04623671 333.39371681 1967.04657793 C331.47688433 1967.04707402 331.47688433 1967.04707402 329.52132796 1967.04758014 C286.45035726 1967.0586054 243.37941078 1967.05457011 200.30844355 1967.03345495 C195.68610353 1967.03124548 191.06376349 1967.02909867 186.44142342 1967.0270009 C185.30700068 1967.02648008 184.17257794 1967.02595925 183.00377876 1967.02542264 C165.02025677 1967.01752426 147.03676484 1967.02303541 129.05324556 1967.03407693 C111.38245359 1967.04464214 93.71171248 1967.04097294 76.04092699 1967.02202058 C65.67341672 1967.01132607 55.3060457 1967.01160355 44.93854201 1967.02794696 C38.05796701 1967.03770368 31.1775007 1967.03302367 24.29693889 1967.01647955 C20.39340206 1967.00749999 16.49014303 1967.00474582 12.58661839 1967.01974562 C8.39085226 1967.0357294 4.19575797 1967.02074486 0 1967.00279331 C-1.79994147 1967.01713776 -1.79994147 1967.01713776 -3.63624539 1967.031772 C-17.37990958 1966.91178937 -29.63995256 1962.20573161 -39.70424461 1952.75139666 C-50.35735388 1941.41099002 -54.07618264 1928.20684052 -53.95564127 1912.93173552 C-53.95961566 1911.59482417 -53.96534185 1910.25791711 -53.97263905 1908.92101977 C-53.98759187 1905.2585624 -53.97781651 1901.59653307 -53.96387925 1897.9340873 C-53.9531062 1893.93057179 -53.96569174 1889.92711581 -53.97522664 1885.92360651 C-53.98878594 1878.88374528 -53.98748351 1871.84400794 -53.97649246 1864.80414402 C-53.9601128 1854.26522259 -53.96682754 1843.72640154 -53.97802303 1833.18747782 C-53.99642515 1815.22577247 -53.99582198 1797.26411241 -53.98489952 1779.30240297 C-53.97389714 1761.09842685 -53.97157102 1742.89448055 -53.97984886 1724.69050264 C-53.98036555 1723.54101568 -53.98088224 1722.39152871 -53.98141459 1721.20720881 C-53.98354766 1716.52558119 -53.98574249 1711.8439536 -53.98801569 1707.16232605 C-54.00917807 1663.54818121 -54.01060562 1619.93405636 -53.99942589 1576.31990862 C-53.99909471 1575.02729605 -53.99876352 1573.73468349 -53.99842231 1572.40290085 C-53.99809059 1571.10822498 -53.99775887 1569.81354911 -53.9974171 1568.47964063 C-53.98732982 1529.05804705 -53.98471627 1489.63646172 -53.98950768 1450.21486712 C-53.98981759 1447.57639878 -53.99012622 1444.93793044 -53.99043356 1442.2994621 C-53.99167539 1431.69691014 -53.99295006 1421.09435818 -53.99427261 1410.49180622 C-53.99794089 1380.85213507 -54.00022969 1351.21246389 -54.00141716 1321.57279253 C-54.00144463 1320.8980325 -54.00147211 1320.22327247 -54.00150041 1319.52806516 C-54.00325544 1275.8273663 -53.99885197 1232.12667041 -53.99001884 1188.42597246 C-53.98987837 1187.72830176 -53.9897379 1187.03063106 -53.98959317 1186.31181883 C-53.98488773 1162.94310539 -53.97986348 1139.57439201 -53.97480665 1116.20567865 C-53.95952489 1045.53748718 -53.95115036 974.86930635 -53.97526797 848.66523145 C-53.98032079 825.30242794 -53.98531484 801.93962443 -53.99001884 778.57682085 C-53.99015982 777.87934669 -53.9903008 777.18187253 -53.99044605 776.46326279 C-53.99926699 732.78550839 -54.00319556 689.10775606 -54.00141716 645.43000078 C-54.00139014 644.75546443 -54.00136311 644.08092808 -54.00133527 643.38595123 C-54.00010839 613.09829265 -53.99755321 582.81063429 -53.99377515 552.52297592 C-53.99245855 541.92982595 -53.99120623 531.33667597 -53.9899723 520.74352598 C-53.98966275 518.10815606 -53.98934783 515.47278615 -53.98902752 512.83741623 C-53.98425046 473.42490482 -53.98832414 434.01240271 -53.99842231 394.59989246 C-53.99875349 393.3072799 -53.99908467 392.01466734 -53.99942589 390.68288469 C-53.99992198 388.7475328 -53.99992198 388.7475328 -54.0004281 386.77308289 C-54.01145326 343.28638897 -54.00741828 299.79971905 -53.98630291 256.31302857 C-53.98409343 251.64611596 -53.98194662 246.97920333 -53.97984886 242.31229067 C-53.97932803 241.16692852 -53.97880721 240.02156637 -53.9782706 238.84149627 C-53.97037208 220.68423008 -53.97588351 202.52699365 -53.98692489 184.36973014 C-53.99748985 166.52840661 -53.99382136 148.68713346 -53.97486853 130.84581635 C-53.96417365 120.37812502 -53.96445216 109.9105716 -53.98079492 99.44288678 C-53.99055108 92.49597161 -53.9858725 85.54916412 -53.96932751 78.60226202 C-53.96034729 74.66099503 -53.95759532 70.7200032 -53.97259358 66.77874829 C-53.98609869 63.19900406 -53.98103393 59.61977277 -53.96149475 56.04006076 C-53.95590464 54.15965073 -53.96978136 52.27921293 -53.98461996 50.39885313 C-53.86543512 36.61817011 -49.18746249 24.34643504 -39.70424461 14.25139666 C-28.40567004 3.63758417 -15.22509714 -0.12133488 0 0 Z M447.54575539 342.50139666 C441.87037471 349.91277612 440.39397715 355.82682386 440.41695422 365.02095664 C440.41517921 365.89494411 440.4134042 366.76893158 440.4115754 367.66940352 C440.40681067 370.62435774 440.40921439 373.57926366 440.41153431 376.53422022 C440.40958241 378.67275766 440.40719396 380.81129473 440.40440634 382.94983125 C440.39798294 388.86898252 440.39784657 394.78812026 440.39868375 400.70727436 C440.39851471 407.13083519 440.39261377 413.5543911 440.38744289 419.9779495 C440.37900891 431.2503087 440.37469011 442.52266519 440.3727169 453.79502726 C440.37058969 465.89398737 440.36633292 477.99294387 440.35947418 490.09190226 C440.35904357 490.85526809 440.35861295 491.61863393 440.35816929 492.40513206 C440.35641098 495.51406678 440.35464133 498.62300148 440.35285627 501.73193617 C440.33124795 539.43916235 440.3203764 577.14638925 440.31138003 614.85362021 C440.30844681 627.07941364 440.30507702 639.3052069 440.30141282 651.53100014 C440.30115453 652.39328618 440.30089624 653.25557222 440.30063012 654.14398814 C440.29958392 657.63237376 440.29853549 661.12075939 440.2974843 664.60914501 C440.27951936 724.27789773 440.26413944 783.94665074 440.25672527 843.61540578 C440.25614129 848.3030574 440.25554403 852.99070902 440.25494765 857.67836063 C440.25482953 858.60825156 440.25471141 859.53814249 440.25458971 860.49621193 C440.25339231 869.91747707 440.25218355 879.33874221 440.25095718 888.76000735 C440.25071195 890.64901374 440.25046809 892.53802013 440.25022561 894.42702652 C440.24243466 955.1044205 440.22004872 1015.78179514 440.18754918 1076.45918067 C440.16420789 1120.05259188 440.1426539 1163.64599925 440.13554287 1207.2394166 C440.13539585 1208.13567764 440.13524883 1209.03193867 440.13509735 1209.95535914 C440.13191273 1229.62927969 440.1298617 1249.30320021 440.1288698 1268.97712099 C440.12845505 1276.89285525 440.12790016 1284.8085895 440.12730789 1292.72432375 C440.12724722 1293.59066296 440.12718655 1294.45700218 440.12712405 1295.34959409 C440.12510701 1323.27090485 440.11086086 1351.19219281 440.09036289 1379.11349561 C440.06979302 1407.23240378 440.06188208 1435.35128557 440.07144065 1463.47020052 C440.07275915 1467.35429521 440.07393718 1471.23838993 440.07503128 1475.12248468 C440.07525113 1475.88388695 440.07547098 1476.64528923 440.07569749 1477.42976429 C440.07881396 1489.49457162 440.06847698 1501.55932856 440.05255573 1513.62412421 C440.03718507 1525.48253104 440.03637372 1537.34086244 440.05010397 1549.19927185 C440.05703621 1555.54487232 440.05754909 1561.890299 440.04054388 1568.23588432 C440.02520768 1574.00546241 440.02818915 1579.77472605 440.04595416 1585.54429452 C440.04911125 1587.62160288 440.04552361 1589.6989349 440.03446241 1591.77621621 C439.97766158 1603.18394468 440.12644514 1612.19253741 446.17075539 1622.18889666 C479.88132404 1655.01234508 548.10733645 1648.07721327 591.54575539 1647.50139666 C648.91550147 1647.58383238 648.91550147 1647.58383238 699.42075539 1624.25139666 C705.94250416 1617.08485469 707.13756892 1608.76446114 707.0379467 1599.40074015 C707.04256208 1598.32214953 707.04717746 1597.24355892 707.05193269 1596.13228375 C707.06250847 1592.52316743 707.04458557 1588.91476695 707.02677345 1585.30568743 C707.02851809 1582.69018135 707.03202102 1580.07467595 707.03713012 1577.45917428 C707.04540532 1571.77541422 707.03888401 1566.09182204 707.02257729 1560.40808153 C706.99839755 1551.95665602 706.99723773 1543.50533594 707.00074524 1535.05388214 C707.00599637 1520.83598034 706.99265222 1506.61815299 706.96867561 1492.40027285 C706.9449999 1478.32471012 706.92961029 1464.2491784 706.92526436 1450.17359591 C706.9249894 1449.29811214 706.92471444 1448.42262837 706.92443115 1447.52061479 C706.9230778 1443.07439602 706.92187227 1438.62817722 706.92072365 1434.18195839 C706.91232411 1402.69710812 706.88538054 1371.21229834 706.8475132 1339.72747087 C706.81077023 1309.14218661 706.78243834 1278.55691342 706.76548195 1247.9716115 C706.76495584 1247.02868343 706.76442974 1246.08575535 706.76388769 1245.1142537 C706.75861357 1235.64490123 706.75351032 1226.17554867 706.74853226 1216.70619604 C706.73838766 1197.41638154 706.72710265 1178.12656777 706.71512794 1158.83675432 C706.71457879 1157.94985822 706.71402963 1157.06296212 706.71346382 1156.14919038 C706.67666701 1096.93324227 706.61328689 1037.71731672 706.54575539 978.50139666 C709.05227537 980.96324239 711.16432559 983.20478352 712.95591164 986.23186541 C713.38234962 986.94310564 713.80878761 987.65434587 714.24814796 988.38713884 C714.69698341 989.14671892 715.14581886 989.906299 715.60825539 990.68889666 C719.26472626 996.77422568 722.97905912 1002.80539206 726.85825539 1008.75139666 C731.06365696 1015.20633989 735.22617648 1021.68673904 739.35825539 1028.18889666 C740.24154518 1029.57866716 740.24154518 1029.57866716 741.14267921 1030.99651384 C742.34442823 1032.88784449 743.54600607 1034.77928391 744.74741554 1036.67083025 C747.67749309 1041.28273889 750.61180117 1045.89195367 753.54575539 1050.50139666 C754.71244313 1052.33471658 755.87910977 1054.16804992 757.04575539 1056.00139666 C757.91200539 1057.36264666 757.91200539 1057.36264666 758.79575539 1058.75139666 C764.04575539 1067.00139666 764.04575539 1067.00139666 765.79526711 1069.75066423 C766.96351926 1071.58646577 768.13181362 1073.42224046 769.30014992 1075.25798845 C772.19290294 1079.80334042 775.08495308 1084.34913633 777.97544289 1088.89592791 C784.15041906 1098.60748135 790.33911749 1108.31004295 796.54575539 1118.00139666 C803.32603718 1128.58846652 810.08317642 1139.19003812 816.82798195 1149.7997365 C819.73249103 1154.36785723 822.63924767 1158.93454743 825.54575539 1163.50139666 C826.71243258 1165.33472329 827.87909925 1167.16805662 829.04575539 1169.00139666 C829.91200539 1170.36264666 829.91200539 1170.36264666 830.79575539 1171.75139666 C878.04575539 1246.00139666 878.04575539 1246.00139666 879.79526711 1248.75066423 C880.96351926 1250.58646577 882.13181362 1252.42224046 883.30014992 1254.25798845 C886.19290294 1258.80334042 889.08495308 1263.34913633 891.97544289 1267.89592791 C898.15041906 1277.60748135 904.33911749 1287.31004295 910.54575539 1297.00139666 C917.32603718 1307.58846652 924.08317642 1318.19003812 930.82798195 1328.7997365 C933.73249103 1333.36785723 936.63924767 1337.93454743 939.54575539 1342.50139666 C940.71243258 1344.33472329 941.87909925 1346.16805662 943.04575539 1348.00139666 C943.91200539 1349.36264666 943.91200539 1349.36264666 944.79575539 1350.75139666 C1006.04575541 1447.00139669 1006.04575541 1447.00139669 1007.79526711 1449.75066423 C1008.96351926 1451.58646577 1010.13181362 1453.42224046 1011.30014992 1455.25798845 C1014.19290294 1459.80334042 1017.08495308 1464.34913633 1019.97544289 1468.89592791 C1026.15041906 1478.60748135 1032.33911749 1488.31004295 1038.54575539 1498.00139666 C1045.32603718 1508.58846652 1052.08317642 1519.19003812 1058.82798195 1529.7997365 C1061.73249103 1534.36785723 1064.63924767 1538.93454743 1067.54575539 1543.50139666 C1068.71243258 1545.33472329 1069.87909925 1547.16805662 1071.04575539 1549.00139666 C1071.91200539 1550.36264666 1071.91200539 1550.36264666 1072.79575539 1551.75139666 C1074.54575539 1554.50139666 1076.29575539 1557.25139666 1078.04575539 1560.00139666 C1078.62357765 1560.90938005 1079.20139992 1561.81736345 1079.79673195 1562.7528615 C1080.96022771 1564.58125838 1082.12363953 1566.40970867 1083.28696632 1568.23821306 C1086.25145248 1572.8975217 1089.21751268 1577.55581598 1092.18638039 1582.21233416 C1092.78490822 1583.15173845 1093.38343605 1584.09114275 1094.00010109 1585.05901384 C1095.18767745 1586.92232196 1096.37629998 1588.78496375 1097.56601906 1590.64690447 C1100.195527 1594.7699015 1102.80345442 1598.90086098 1105.33091164 1603.08733416 C1117.55791457 1623.30267657 1132.27089943 1634.48623326 1155.35825539 1640.18889666 C1216.307837 1654.39779582 1330.59391153 1662.79721352 1386.34653664 1629.96233416 C1392.88460396 1625.61910649 1396.90844676 1619.47771761 1399.85825539 1612.31389666 C1404.59476262 1586.04781109 1388.10770608 1559.86202129 1376.54575539 1537.50139666 C1375.97848732 1536.39078875 1375.97848732 1536.39078875 1375.39975929 1535.25774431 C1368.73494438 1522.31243354 1360.25867205 1510.41909827 1352.14156532 1498.36084795 C1345.58151751 1488.59981419 1339.1334645 1478.76450663 1332.67075539 1468.93889666 C1325.66412773 1458.28646745 1318.64974245 1447.64004329 1311.56919289 1437.03655291 C1303.73399219 1425.30292523 1295.97775067 1413.51777523 1288.22300148 1401.73088884 C1281.690377 1391.80326064 1275.14538195 1381.88464508 1268.54575539 1372.00139666 C1260.71835439 1360.2794988 1252.97000847 1348.50600742 1245.22300148 1336.73088884 C1238.690377 1326.80326064 1232.14538195 1316.88464508 1225.54575539 1307.00139666 C1217.71835439 1295.2794988 1209.97000847 1283.50600742 1202.22300148 1271.73088884 C1195.690377 1261.80326064 1189.14538195 1251.88464508 1182.54575539 1242.00139666 C1174.71835439 1230.2794988 1166.97000847 1218.50600742 1159.22300148 1206.73088884 C1152.690377 1196.80326064 1146.14538195 1186.88464508 1139.54575539 1177.00139666 C1131.71835439 1165.2794988 1123.97000847 1153.50600742 1116.22300148 1141.73088884 C1109.690377 1131.80326064 1103.14538195 1121.88464508 1096.54575539 1112.00139666 C1088.71835439 1100.2794988 1080.97000847 1088.50600742 1073.22300148 1076.73088884 C1066.690377 1066.80326064 1060.14538195 1056.88464508 1053.54575539 1047.00139666 C1045.71835439 1035.2794988 1037.97000847 1023.50600742 1030.22300148 1011.73088884 C1019.57842365 995.55432592 1008.90708114 979.39634653 998.03782082 963.36956072 C995.62933698 959.81168607 993.23535559 956.24420378 990.84409523 952.6747365 C989.62300341 950.85951041 988.39521935 949.04877184 987.16147804 947.24211931 C985.34518337 944.57932268 983.55275744 941.90182832 981.76450539 939.22014666 C981.20750954 938.41500628 980.65051369 937.60986589 980.07663918 936.78032732 C976.41496447 931.21830863 976.41496447 931.21830863 977.06308937 927.6657033 C977.55236916 926.95148211 978.04164894 926.23726091 978.54575539 925.50139666 C978.93706642 924.92252703 979.32837746 924.3436574 979.7315464 923.74724627 C980.16652443 923.22138933 980.60150246 922.6955324 981.04966164 922.15374041 C981.78237282 921.25582781 981.78237282 921.25582781 982.52988625 920.33977556 C983.05074806 919.71248552 983.57160988 919.08519548 984.10825539 918.43889666 C985.20602814 917.09239571 986.30237023 915.74472717 987.39731789 914.39592791 C987.93646828 913.73286638 988.47561867 913.06980486 989.03110695 912.38665056 C991.83748193 908.89360936 994.49104584 905.28885072 997.16294289 901.69280291 C999.94936119 897.96082954 1002.77556225 894.26079402 1005.60825539 890.56389666 C1010.597167 884.05045169 1015.57535664 877.52898105 1020.54575539 871.00139666 C1028.05344941 861.14341357 1035.57844868 851.29877681 1043.10923195 841.45842791 C1050.28543064 832.08069471 1057.44919997 822.69361108 1064.60361671 813.29924822 C1069.26566098 807.17860298 1073.93630528 801.06461824 1078.61216164 794.95452166 C1082.93098392 789.30927975 1087.2393316 783.65610047 1091.54575539 778.00139666 C1099.05353188 768.1434762 1106.57844852 758.29877702 1114.10923195 748.45842791 C1121.28543064 739.08069471 1128.44919997 729.69361108 1135.60361671 720.29924822 C1140.26566098 714.17860298 1144.93630528 708.06461824 1149.61216164 701.95452166 C1153.93098392 696.30927975 1158.2393316 690.65610047 1162.54575539 685.00139666 C1170.05353188 675.1434762 1177.57844852 665.29877702 1185.10923195 655.45842791 C1192.28543064 646.08069471 1199.44919997 636.69361108 1206.60361671 627.29924822 C1211.26566098 621.17860298 1215.93630528 615.06461824 1220.61216164 608.95452166 C1224.93098392 603.30927975 1229.2393316 597.65610047 1233.54575539 592.00139666 C1241.05353188 582.1434762 1248.57844852 572.29877702 1256.10923195 562.45842791 C1263.28543064 553.08069471 1270.44919997 543.69361108 1277.60361671 534.29924822 C1282.26566098 528.17860298 1286.93630528 522.06461824 1291.61216164 515.95452166 C1296.61631037 509.41347221 1301.60644574 502.86177868 1306.59556007 496.30925798 C1310.28426841 491.46571932 1313.97868235 486.62668073 1317.68271828 481.79485369 C1319.7966221 479.03497259 1321.90425959 476.27033185 1324.01206398 473.50579119 C1325.53294485 471.51813886 1327.06428421 469.53888335 1328.59653664 467.55999041 C1336.25246208 457.60407055 1343.01122297 447.22099045 1349.54575539 436.50139666 C1350.30420753 435.26268816 1350.30420753 435.26268816 1351.07798195 433.99895525 C1354.62237097 428.19853448 1358.10927925 422.36637844 1361.54575539 416.50139666 C1362.23894875 415.31900408 1362.23894875 415.31900408 1362.94614601 414.11272478 C1373.14720439 396.58558441 1384.742298 375.34495691 1379.42075539 354.43889666 C1375.94410902 344.05724431 1369.03154016 338.93763222 1359.66294289 333.97405291 C1301.5819819 306.47306777 1190.00357988 309.85792001 1130.33481789 330.61858416 C1123.3235709 333.32065163 1117.46802041 336.90439374 1111.54575539 341.50139666 C1110.93216164 341.94999041 1110.31856789 342.39858416 1109.68638039 342.86077166 C1100.79356354 349.79553709 1095.02084788 360.17304252 1089.20005226 369.65398455 C1086.2689746 374.41019035 1083.13392805 378.93315474 1079.79575539 383.41545916 C1076.85508684 387.44866775 1074.04443272 391.56477543 1071.23325539 395.68889666 C1070.67057961 396.51397722 1070.10790382 397.33905779 1069.52817726 398.1891408 C1068.39959504 399.84492381 1067.27133657 401.50092754 1066.14341164 403.15715837 C1059.37817558 413.08377766 1052.53762058 422.95738139 1045.67075539 432.81389666 C1039.07528693 442.28166051 1032.54053686 451.78905598 1026.03647804 461.31975603 C1022.32653934 466.74917173 1018.59439944 472.16336979 1014.86655617 477.58049822 C1013.5692998 479.46715498 1012.27401034 481.35514582 1010.97934914 483.24358416 C1005.61741674 491.06080201 1000.21681121 498.85005266 994.79575539 506.62639666 C988.87442363 515.12234223 983.01634858 523.65868292 977.19565773 532.22380877 C971.98301805 539.88410489 966.69658827 547.49146846 961.39658546 555.09148455 C955.55950511 563.46679854 949.79089786 571.8875369 944.03647804 580.31975603 C940.32653934 585.74917173 936.59439944 591.16336979 932.86655617 596.58049822 C931.5692998 598.46715498 930.27401034 600.35514582 928.97934914 602.24358416 C923.61741674 610.06080201 918.21681121 617.85005266 912.79575539 625.62639666 C906.87442363 634.12234223 901.01634858 642.65868292 895.19565773 651.22380877 C889.98301805 658.88410489 884.69658827 666.49146846 879.39658546 674.09148455 C873.55950511 682.46679854 867.79089786 690.8875369 862.03647804 699.31975603 C858.32653934 704.74917173 854.59439944 710.16336979 850.86655617 715.58049822 C849.5692998 717.46715498 848.27401034 719.35514582 846.97934914 721.24358416 C841.61741674 729.06080201 836.21681121 736.85005266 830.79575539 744.62639666 C824.87442363 753.12234223 819.01634858 761.65868292 813.19565773 770.22380877 C807.98301805 777.88410489 802.69658827 785.49146846 797.39658546 793.09148455 C791.55950511 801.46679854 785.79089786 809.8875369 780.03647804 818.31975603 C776.32653934 823.74917173 772.59439944 829.16336979 768.86655617 834.58049822 C767.5692998 836.46715498 766.27401034 838.35514582 764.97934914 840.24358416 C759.61741674 848.06080201 754.21681121 855.85005266 748.79575539 863.62639666 C743.50189158 871.22204921 738.25022897 878.84423219 733.04575539 886.50139666 C727.65976697 894.41854069 722.24674744 902.31633968 716.79575539 910.18889666 C716.11577492 911.175674 715.43579445 912.16245134 714.73520851 913.17913103 C714.10034523 914.09372087 713.46548195 915.00831072 712.81138039 915.95061541 C712.25224953 916.75845476 711.69311867 917.56629412 711.11704445 918.39861345 C709.70439384 920.28909817 708.22911787 921.85792489 706.54575539 923.50139666 C706.54727427 922.30332309 706.54879315 921.10524953 706.55035806 919.87087071 C706.6170332 867.07083403 706.6787444 814.27079365 706.71512794 761.47072649 C706.71568017 760.67137614 706.7162324 759.87202578 706.71680136 759.04845269 C706.72877296 741.67647581 706.73985369 724.30449846 706.7500167 706.93252043 C706.75500606 698.41332412 706.76019227 689.89412794 706.76548195 681.37493181 C706.7662665 680.10328722 706.7662665 680.10328722 706.76706691 678.80595285 C706.78411273 651.32680528 706.81415828 623.84769061 706.85094427 596.36856297 C706.88867755 568.13052468 706.91329784 539.89250461 706.92141535 511.65444154 C706.92256797 507.66614397 706.92387052 503.67784646 706.92526436 499.68954897 C706.92553405 498.90459373 706.92580374 498.11963848 706.92608161 497.31089672 C706.93080874 484.67455332 706.94936167 472.03826622 706.97308352 459.40194578 C706.99663618 446.69860861 707.00562638 433.99532725 706.9997609 421.29196902 C706.99698613 414.40881413 707.00064792 407.52581006 707.02257729 400.64268541 C707.04202291 394.34200097 707.04303794 388.04159313 707.02935097 381.74089603 C707.02765899 379.46078147 707.03274971 377.18064975 707.04528812 374.90056904 C707.0613433 371.80088873 707.05268716 368.70220657 707.0379467 365.60254145 C707.04845476 364.71754337 707.05896281 363.8325453 707.06978929 362.9207291 C706.98006839 354.57008969 704.47909026 346.58249657 698.54575539 340.50139666 C662.29513475 310.20530035 483.73326224 309.26334177 447.54575539 342.50139666 Z " fill="#3E60F4" transform="translate(79.45424461364746,16.498603343963623)"/>
</svg>
